<svg width="24" height="24" viewBox="0 0 24 24" fill="#ffffff"  xmlns="http://www.w3.org/2000/svg">
    <g>
        <path d="M16.9492 18.364C17.3397 18.7545 17.9728 18.7545 18.3634 18.364C18.7539 17.9734 18.7539 17.3403 18.3634 16.9497L13.4136 12L18.3634 7.05025C18.7539 6.65973 18.7539 6.02656 18.3634 5.63604C17.9728 5.24551 17.3397 5.24552 16.9492 5.63604L11.9994 10.5858L7.04966 5.63604C6.65913 5.24551 6.02597 5.24551 5.63545 5.63604C5.24492 6.02656 5.24492 6.65973 5.63545 7.05025L10.5852 12L5.63545 16.9497C5.24492 17.3403 5.24492 17.9734 5.63545 18.364C6.02597 18.7545 6.65913 18.7545 7.04966 18.364L11.9994 13.4142L16.9492 18.364Z"/>
    </g>
</svg>
