<svg width="48" height="48" xmlns="http://www.w3.org/2000/svg" fill="#F5E9DB">
    <g>
        <g stroke="null" id="svg_5">
            <path stroke="null" fill-rule="evenodd" clip-rule="evenodd" d="m22.42547,14.2212c-0.269,0.20586 -0.27432,0.3547 -0.27432,0.37537l0,10.55065c0,1.08903 -0.88495,1.97186 -1.97665,1.97186c-1.09196,0 -1.97689,-0.88283 -1.97689,-1.97186l0,-10.55065c0,-3.0615 3.00499,-4.71325 5.55476,-4.71325c2.54977,0 5.55505,1.65175 5.55505,4.71325l0,10.55065c0,1.08903 -0.88522,1.97186 -1.97691,1.97186c-1.09169,0 -1.97691,-0.88283 -1.97691,-1.97186l0,-10.55065c0,-0.02067 -0.00506,-0.16951 -0.27405,-0.37537c-0.27219,-0.20823 -0.73409,-0.39373 -1.32717,-0.39373c-0.59281,0 -1.05497,0.18551 -1.3269,0.39373z" id="svg_1"/>
            <path stroke="null" fill-rule="evenodd" clip-rule="evenodd" d="m29.58333,16.4691c-0.269,0.20586 -0.27432,0.3547 -0.27432,0.37537c0,1.08914 -0.88495,1.9721 -1.97665,1.9721c-1.09196,0 -1.97691,-0.88296 -1.97691,-1.9721c0,-3.0615 3.00502,-4.71325 5.55478,-4.71325c2.54977,0 5.55505,1.65175 5.55505,4.71325l0,8.30248c0,1.08903 -0.88522,1.97186 -1.97691,1.97186c-1.09169,0 -1.97691,-0.88283 -1.97691,-1.97186l0,-8.30248c0,-0.02067 -0.00506,-0.16951 -0.27405,-0.37537c-0.27219,-0.20823 -0.73436,-0.39373 -1.32717,-0.39373c-0.59281,0 -1.05497,0.18551 -1.3269,0.39373z" id="svg_2"/>
            <path stroke="null" fill-rule="evenodd" clip-rule="evenodd" d="m15.92754,4.42941l0,27.56092c0,1.08903 -0.88503,1.97212 -1.97681,1.97212c-1.09177,0 -1.97683,-0.88309 -1.97683,-1.97212l0,-27.58928c0,-1.39329 0.74487,-2.52058 1.68107,-3.23647c0.93524,-0.71517 2.14294,-1.10207 3.39936,-1.10207c1.25644,0 2.46404,0.3869 3.39928,1.10207c0.93631,0.71589 1.68104,1.84319 1.68104,3.23647l0,15.06661c0,1.08903 -0.88495,1.97212 -1.97665,1.97212c-1.09169,0 -1.97689,-0.88309 -1.97689,-1.97212l0,-15.03825c-0.01312,-0.02317 -0.04819,-0.06995 -0.13266,-0.13453c-0.1866,-0.14269 -0.53071,-0.28824 -0.99412,-0.28824c-0.46339,0 -0.80753,0.14554 -0.99412,0.28824c-0.08445,0.06458 -0.11952,0.11135 -0.13266,0.13453zm-0.00686,0.01644c-0.00045,-0.00011 0.00035,-0.0037 0.0037,-0.01048c-0.0016,0.00716 -0.00327,0.01056 -0.0037,0.01048zm2.26733,0c-0.00045,0.00008 -0.00213,-0.00333 -0.00373,-0.01048c0.00338,0.00678 0.00418,0.01038 0.00373,0.01048z" id="svg_3"/>
            <path stroke="null" fill-rule="evenodd" clip-rule="evenodd" d="m32.51039,18.521c0,-2.80956 2.73415,-4.23996 4.94202,-4.23996c1.22127,0 2.39465,0.3795 3.30355,1.07727c0.90358,0.69368 1.63049,1.78691 1.63847,3.14042l0.00958,0.52033c0.00612,0.34243 0.01437,0.8344 0.02368,1.43386c0.01863,1.19892 0.04098,2.82861 0.05561,4.55143c0.02927,3.39082 0.03219,7.29755 -0.09499,8.87749l-0.00027,0.00213l-1.97026,-0.15831l1.97053,0.15618c-0.00958,0.12053 -0.01889,0.2408 -0.0282,0.36079c-0.21179,2.70914 -0.41534,5.31079 -1.90162,7.52265l-0.0016,0.00239c-2.18312,3.23916 -4.64668,4.859 -7.07964,5.60401c-2.02321,0.61968 -3.96128,0.59467 -5.27913,0.57764c-0.19769,-0.00266 -0.38155,-0.00506 -0.54944,-0.00506l-7.37258,0l-0.00106,-1.97212l0,-1.97212l7.37365,0c0.22244,0 0.44301,0.00213 0.66225,0.00399c1.33462,0.01144 2.61708,0.02262 4.00598,-0.40257c1.51049,-0.4627 3.24741,-1.49532 4.95851,-4.03338c0.85861,-1.27901 1.02198,-2.84245 1.27156,-5.99753l0.00027,-0.00319c0.10989,-1.35989 0.11255,-5.05324 0.08275,-8.52893c-0.0149,-1.71111 -0.03698,-3.33149 -0.05561,-4.52429c-0.00905,-0.59653 -0.01756,-1.08557 -0.02341,-1.42561l-0.00931,-0.51328c0.00346,0.00474 0.00825,0.01197 0.00825,0.01197c-0.00213,-0.00625 -0.00479,-0.01557 -0.00639,-0.02812l-0.00239,0.00005l0.00053,0.0161c-0.01463,-0.0191 -0.04337,-0.05021 -0.09685,-0.09124c-0.16363,-0.12556 -0.47281,-0.25881 -0.8924,-0.25881c-0.42864,0 -0.73782,0.13354 -0.89666,0.2549c-0.05135,0.03906 -0.07849,0.06838 -0.09233,0.08623c0.00053,-0.01506 0.00053,-0.03017 0.00053,-0.04531c0,0.02677 -0.00399,0.04491 -0.00745,0.05518c0,0 0.00426,-0.00607 0.00692,-0.00987c-0.02395,1.06817 -0.89959,1.92679 -1.97612,1.92679c-1.09196,0 -1.97691,-0.88309 -1.97691,-1.9721zm-26.78093,17.74484c0.56535,1.53124 1.81224,4.38673 4.05999,6.89046c2.28181,2.54178 5.66893,4.78796 10.38665,4.78796l-0.00106,-1.97212l0,-1.97212c-3.30815,0 -5.69447,-1.53018 -7.44043,-3.4749c-1.77741,-1.97984 -2.81347,-4.31702 -3.29679,-5.62689l-0.0042,-0.01118c-0.15195,-0.40443 -0.22997,-0.83999 -0.22997,-1.27981l0,-11.04172l0.00583,-0.00506c0.01078,-0.00878 0.03507,-0.02687 0.08083,-0.04843c0.08834,-0.04177 0.30622,-0.11973 0.73359,-0.12612l0.00306,0c1.11532,-0.01836 1.49905,0.39831 1.67814,0.65161c0.12125,0.17135 0.19825,0.35467 0.24338,0.49942c0.02171,0.06971 0.03337,0.12186 0.03845,0.1474c0.00085,0.00426 0.00194,0.01011 0.00194,0.01011c0.14291,1.06242 1.11356,1.8194 2.18575,1.69594c1.08459,-0.12479 1.86237,-1.10313 1.73721,-2.18498l-1.9638,0.2259c1.9638,-0.2259 1.96353,-0.22829 1.96353,-0.22829l-0.00027,-0.00213l-0.00059,-0.00506l-0.0013,-0.01064l-0.00325,-0.02501c-0.00247,-0.01836 -0.00553,-0.03964 -0.00931,-0.06412c-0.00756,-0.04896 -0.01804,-0.10989 -0.03233,-0.18146c-0.02844,-0.14288 -0.07266,-0.33046 -0.14057,-0.54837c-0.13399,-0.42997 -0.37082,-1.01214 -0.78826,-1.60255c-0.8981,-1.26969 -2.49073,-2.36171 -4.9724,-2.32134c-1.8537,0.02799 -3.1472,0.73609 -3.91958,1.74929c-0.35457,0.46536 -0.54688,0.92806 -0.65185,1.28034c-0.0529,0.17747 -0.08544,0.33286 -0.10563,0.45605c-0.01014,0.06173 -0.01729,0.11627 -0.02235,0.1623c-0.00255,0.02288 -0.00458,0.0439 -0.0062,0.06253l-0.00213,0.02661l-0.00085,0.01224l-0.0004,0.00559l-0.00019,0.00266c0,0 -0.00016,0.00293 1.97274,0.12718l-1.9729,-0.12426c-0.00263,0.04124 -0.00394,0.08275 -0.00394,0.12426l0,11.28012c0,0.89906 0.1585,1.80264 0.47946,2.65859zm0,0l-0.00197,-0.00532l1.85516,-0.68114l-1.85096,0.69259l-0.00224,-0.00612zm1.49737,-13.93871l1.97271,0.12692l0.0041,0.11148c-0.00718,0.00639 -0.01282,0.01357 -0.01282,0.01357c-0.00287,0.00373 -0.00511,0.00745 -0.00689,0.01118c-0.00197,0.00399 -0.00226,0.00532 -0.00226,0.00532c0,0 0.00295,-0.01011 0.00631,-0.0306c0.00173,-0.01038 0.00375,-0.02474 0.00577,-0.0431l0.00309,-0.0314l0.00146,-0.01863l0.00072,-0.00984l0.00037,-0.00532l0.00016,-0.00266c0,0 0.00019,-0.00266 -1.97271,-0.12692zm4.75766,1.33249l-0.00027,-0.00213l1.9638,-0.22616c-1.95395,0.2251 -1.96353,0.22829 -1.96353,0.22829zm0,0l0.00024,0.00213l0.00048,0.00399l0.0009,0.00745l0.0008,0.01118l0.00255,0.0133c0,0 0.00024,0.00133 -0.00061,-0.00319c-0.00154,-0.01144 -0.00303,-0.02341 -0.00436,-0.03486z" id="svg_4"/>
        </g>
    </g>

</svg>
