<svg width="24" height="36" xmlns="http://www.w3.org/2000/svg" fill="none">
    <g>
        <path fill-rule="evenodd" clip-rule="evenodd" d="m0.91117,13.99051c-0.75661,-0.77823 -0.75661,-2.03996 0,-2.81816l9.68693,-9.96373c0.75661,-0.7782 1.9833,-0.7782 2.7399,0l9.68693,9.96373c0.7567,0.7782 0.7567,2.03993 0,2.81816c-0.75658,0.7782 -1.98328,0.7782 -2.73988,0l-8.31701,-8.55463l-8.31701,8.55463c-0.75661,0.7782 -1.9833,0.7782 -2.73988,0l0.00002,0z" fill="#F5E9DB" id="svg_1" stroke="null"/>
        <path fill-rule="evenodd" clip-rule="evenodd" d="m0.85173,24.72901c-0.76068,-0.79217 -0.76068,-2.07651 0,-2.86867l9.739,-10.14228c0.76068,-0.79215 1.99397,-0.79215 2.75464,0l9.73901,10.14228c0.76077,0.79216 0.76077,2.0765 0,2.86867c-0.76064,0.79215 -1.99393,0.79215 -2.75461,0l-8.36172,-8.70794l-8.36171,8.70794c-0.76068,0.79215 -1.99397,0.79215 -2.75461,0z" fill="#c9bfb3" id="svg_5" stroke="null"/>
        <path fill-rule="evenodd" clip-rule="evenodd" d="m0.85173,35.10301c-0.76068,-0.79217 -0.76068,-2.07651 0,-2.86867l9.739,-10.14228c0.76068,-0.79215 1.99397,-0.79215 2.75464,0l9.73901,10.14228c0.76077,0.79216 0.76077,2.0765 0,2.86867c-0.76064,0.79215 -1.99393,0.79215 -2.75461,0l-8.36172,-8.70794l-8.36171,8.70794c-0.76068,0.79215 -1.99397,0.79215 -2.75461,0z" fill="#a1998f" id="svg_6" stroke="null"/>
    </g>

</svg>
